# xmcd CD database file
#
# Track frame offsets:
#	150
#	5363
#	21165
#	40592
#	56240
#	76415
#	94450
#	112625
#	131409
#	150040
#
# Disc length: 2379 seconds
#
# Revision: 0
# Processed by: cddbd v1.5.1PL0 Copyright (c) Steve Scherf et al.
# Submitted via: CDex 1.51
#
DISCID=6709490a
DTITLE=Cavicchi - La noche latina
DYEAR=2004
DGENRE=Salsa
TTITLE0=Palacavicchi (intro)
TTITLE1=Anvedi come balla Nando (baile de Nando)
TTITLE2=Antes esteba yo
TTITLE3=Esta llegado
TTITLE4=El amores a qui
TTITLE5=Yo senti
TTITLE6=Mas feliz
TTITLE7=Como hare
TTITLE8=Yo senti (hip hop version)
TTITLE9=Brano scuola 1.2.3
EXTD=YEAR: 2004
EXTT0=
EXTT1=
EXTT2=
EXTT3=
EXTT4=
EXTT5=
EXTT6=
EXTT7=
EXTT8=
EXTT9=
PLAYORDER=
